<svg width="45" height="53" viewBox="0 0 45 53" fill="none" xmlns="http://www.w3.org/2000/svg">
<path fill-rule="evenodd" clip-rule="evenodd" d="M0 13.8778V40.8126L20.9841 52.8306L44.6777 38.8181V11.8834" fill="#FF9271"/>
<path d="M20.9841 25.8959V52.8306L44.6777 38.8181V11.8834L20.9841 25.8959Z" fill="#DF5C34"/>
<path d="M0 13.8778L24.3469 0L44.6777 11.8834L20.9841 25.8959L0 13.8778Z" fill="#F47B56"/>
<path fill-rule="evenodd" clip-rule="evenodd" d="M28.645 7.74695C26.4744 6.55842 24.0098 6.01552 21.5414 6.18217C18.9515 6.22783 16.4212 6.96746 14.2136 8.32413C13.0558 8.98332 12.1347 9.99078 11.581 11.2036C11.1193 12.2537 11.1193 13.4497 11.581 14.4999C12.14 15.6911 13.0707 16.6679 14.2328 17.2831C15.6727 18.0971 17.2601 18.616 18.9023 18.8095C20.7091 19.0596 22.5437 19.0271 24.3405 18.7133C25.9893 18.4624 27.5733 17.8917 29.0037 17.033C29.5001 16.7295 29.9619 16.3726 30.3808 15.9685C30.6986 15.6671 30.9821 15.3316 31.2263 14.968C31.3955 14.6983 31.533 14.4099 31.6363 14.1087C31.708 13.9208 31.7658 13.7279 31.8092 13.5315C31.8131 13.4589 31.8131 13.3861 31.8092 13.3135L29.4328 13.1788L29.3432 13.5828C29.2142 13.9898 28.9952 14.3624 28.7026 14.673C28.2652 15.1809 27.7481 15.6141 27.1717 15.9556C25.5058 16.9435 23.599 17.4496 21.6631 17.4178C19.7186 17.5 17.7895 17.0405 16.0904 16.0903C14.5339 15.1733 13.7332 14.0317 13.7332 12.7491C13.7204 11.4409 14.4698 10.3143 15.9815 9.36945C17.6426 8.3564 19.5453 7.80928 21.4901 7.78543C23.3253 7.66455 25.1567 8.07177 26.7682 8.95902C28.2841 9.85684 28.6001 10.5815 27.7162 11.133C27.0683 11.4819 26.2887 11.4819 25.6408 11.133L21.4709 8.67684L19.671 9.79913L20.3115 10.1839H19.9592C19.6143 10.2031 19.2727 10.2612 18.9408 10.3571C18.5246 10.4652 18.1272 10.636 17.7622 10.8637C16.9865 11.232 16.489 12.0115 16.4811 12.871C16.5195 13.6662 17.032 14.3588 18.0312 14.9488C19.0879 15.5561 20.2914 15.8601 21.5093 15.8274C22.6865 15.8505 23.8468 15.544 24.8594 14.9424C25.2938 14.6962 25.656 14.3402 25.9099 13.9099C26.0624 13.6785 26.1508 13.4107 26.1661 13.1339C26.1519 13.017 26.1217 12.9027 26.0764 12.794L26.5632 12.8325C27.0092 12.8456 27.4549 12.8003 27.8891 12.6978C28.4175 12.591 28.9228 12.3913 29.3816 12.1078C30.3488 11.5242 30.7588 10.8316 30.6627 10.0364C30.5666 9.24119 29.8876 8.47804 28.645 7.74695ZM23.0723 11.8128C23.4879 11.9933 23.7876 12.3678 23.8729 12.8133H23.8986C23.9052 13.2232 23.6689 13.5982 23.2965 13.7688C22.8045 14.0597 22.2407 14.2064 21.6695 14.1921C21.0752 14.2058 20.4884 14.0573 19.972 13.7624C19.5615 13.5823 19.2749 13.2004 19.2162 12.7555C19.2259 12.3283 19.473 11.9423 19.8568 11.7551C20.3241 11.4751 20.8626 11.3369 21.4069 11.3575C21.9926 11.3583 22.5675 11.5154 23.0723 11.8128Z" fill="#3E2928"/>
</svg>
